<?xml version="1.0" encoding="utf-8"?>
<!-- Generator: Adobe Illustrator 23.0.4, SVG Export Plug-In . SVG Version: 6.00 Build 0)  -->
<svg version="1.1" id="Layer_1" xmlns="http://www.w3.org/2000/svg" xmlns:xlink="http://www.w3.org/1999/xlink" x="0px" y="0px"
	 viewBox="0 0 24 24" style="enable-background:new 0 0 24 24;" xml:space="preserve">
<style type="text/css">
	.st0{fill:#869AB8;}
	.st1{fill-rule:evenodd;clip-rule:evenodd;fill:#FFFFFF;}
</style>
<sodipodi:namedview  bordercolor="#666666" borderopacity="1.0" fit-margin-bottom="0" fit-margin-left="0" fit-margin-right="0" fit-margin-top="0" id="base" pagecolor="#ffffff" showgrid="false">
	</sodipodi:namedview>
<g id="layer1" transform="translate(-200.55198,-393.96227)">
	<g id="g3019" transform="matrix(1.018827,0,0,-1.018827,170.5996,498.03288)">
		<path id="path14" class="st0" d="M29.5,100.5c0,0.9,0.8,1.7,1.7,1.7h19.9c1,0,1.7-0.8,1.7-1.7V80.3c0-0.9-0.8-1.7-1.7-1.7H31.2
			c-1,0-1.7,0.8-1.7,1.7V100.5z"/>
		<path id="path28" class="st1" d="M36.6,82.4v10.6H33V82.4H36.6z M34.8,94.5c1.2,0,2,0.8,2,1.8c0,1-0.8,1.8-2,1.8
			c-1.2,0-2-0.8-2-1.8C32.8,95.3,33.6,94.5,34.8,94.5L34.8,94.5L34.8,94.5z"/>
		<path id="path30" class="st1" d="M38.5,82.4h3.5v5.9c0,0.3,0,0.6,0.1,0.9c0.3,0.6,0.8,1.3,1.8,1.3c1.3,0,1.8-1,1.8-2.4v-5.7h3.5
			v6.1c0,3.3-1.7,4.8-4.1,4.8c-1.9,0-2.7-1.1-3.2-1.8h0v1.5h-3.5C38.6,92.1,38.5,82.4,38.5,82.4L38.5,82.4z"/>
	</g>
</g>
</svg>
