<?xml version="1.0" encoding="utf-8"?>
<!-- Generator: Adobe Illustrator 23.0.4, SVG Export Plug-In . SVG Version: 6.00 Build 0)  -->
<svg version="1.1" id="Layer_1" xmlns="http://www.w3.org/2000/svg" xmlns:xlink="http://www.w3.org/1999/xlink" x="0px" y="0px"
	 viewBox="0 0 480.6 192" style="enable-background:new 0 0 480.6 192;" xml:space="preserve">
<style type="text/css">
	.st0{fill:#384C74;}
</style>
<path class="st0" d="M478.3,55.8c-1.4,0.8-22.3,12-24.6,12.8c-2.2,0.9-2.3,1.2-2.1-0.4c0.2-1.5,8.5-16.5,9.6-20.3
	c0.7-2.2-0.9-4.2-2.5-4.9c-2-0.9-2.8-1.7-3.8-2.3c-1-0.7-2-0.4-3,0.1c-1,0.5-4.1,3.3-6.9,5.4c-2.8,2.1-7.2,6.7-8.3,6.9
	c-0.7,0.1,1.9-3.1,4.1-11.1c0.6-2.3-2.7-3.9-4.1-4.8c-1.4-0.9-3-0.8-3.7-0.3c-0.7,0.5-3.8,3-7,6.1c-3.2,3.1-21.7,19.5-23.1,20.5
	c-1.4,1-3.3,3.1-3.4,2.1c-0.1-1.4,6.9-11.5,8.8-15.4c0.7-1.5-0.5-2.7-1.2-3.4c-0.6-0.7-1.3-1.5-2.6-2.4c-1.3-0.9-2.6,0.7-3.1,0.9
	c-0.5,0.2-1.5,2.1-1.4,0.4c0.1-3-2.6-6.3-5.2-7.9c-2.6-1.6-4.2-0.4-4.2-0.4c-11.7,4-24.6,20-24.6,20c-5.1,4.6-19.8,13.8-23.3,15.5
	c-1.1,0.5-2.1,0.9-3.2,1.1c-0.8,0.2-0.4-1.5-0.4-1.5c1.7-13,15.7-25.6,16.6-26.3c0.9-0.7,1-0.2,0.8,0.5c-0.2,0.7-0.6,2-1.1,3.7
	c-0.5,1.7,0.5,3.3,2.2,3.1c1.6-0.2,5.1-4.6,6.5-6.9c1.4-2.2-0.2-4.1-0.8-4.4c-0.6-0.3-1.6-0.6-1.6-0.9c0-0.4,0.2-0.9-0.5-1.9
	c-0.7-1-2.9-2.9-6-3.8c-1.8-0.5-7.9,5-12.6,9c-4.7,4-9.9,14-11.1,14.9c-1.2,0.9-9.4,6.5-12.1,7.9c-2,1-7.9,4.6-7.7,3.7
	c2.6-10.6,12.2-22.5,13.1-24.6c0.6-1.3-0.4-3.7-1.7-4.4c-1.3-0.7-2.2-1.4-3.3-1.7c-1.1-0.4-3.2-0.2-4.1,0.8c-0.9,1.1-3.4,5-5.4,7.9
	c-1.9,2.9-3.8,6-5.7,7.9c-3.7,3.9-16,12-16.9,12.5c-0.9,0.5-3.6,2.9-2.7,0.3c1.6-4.8,10.6-18.1,10.6-18.1c0.4-0.5,1.9-1.7,1.3-4.5
	c-0.8-3.4-4.5-4.4-5.9-5.1c-1.2-0.7-0.9-1.8-0.5-3.1c0.3-1,0.6-2.2-1.8-5.1c-2.4-2.9-4.8-2.6-6.2-2.4c-1.2,0.2-2.9,1.9-3.7,4.3
	c-0.8,2.4,0.2,4.5,0.2,4.5c-1,0.8-5,5.3-11.6,12.2c-6.6,6.9-20.2,16.5-21.1,17.2c-1,0.7-6,4.2-6.4,4c-2.8-1.2-0.3-7-0.3-7
	c8.8-4.1,17.1-10.8,20.4-14.1c3.3-3.3,4.2-9.2,1-12.2c-1.5-1.5-4-2.4-7.1-2.5c-3.4-0.1-7.4,1-11.4,4.4
	c-12.5,10.7-13.7,22.1-13.7,22.1c-0.9,0.9-9.9,5.9-13.7,7.6c-0.9,0.4-1.2,0.5-1.2-0.4c0-1.7,0.8-4.9,1.9-7.7
	c1.4-3.6,7.6-14.7,8.2-16.2c1-2.6-2.7-5.7-4.5-6.6c-0.9-0.4-2.6-0.9-4-0.3c-1.4,0.6-3,2.2-4.8,4.2c-3.7,3.9-11.4,10.8-11.4,10.8
	c0.7-1.3,3.5-6.3,5.1-10.1c1-2.3-2.8-4.6-4.5-5.9c-2.5-2-4.6,0.3-5.1,0.6c-1.9,1.1-8.3,5.6-9.9,6.9c-1.9,1.5-1.1,0.4-1.1,0.4
	c3.1-5.2,2.6-6,2.4-7.4c-0.2-2.6-4.9-4.8-7.1-5.4c-1.1-0.3-2.4-0.2-2.8,0.4c-0.3,0.5-0.2,1.3-0.1,2.8c0.1,0.6-1.9,4.7-3.3,6.8
	c-1.4,2.2-7.6,12-9.2,14.4c-1.6,2.5-7.6,11.8-8.6,13.8c-1.1,2.1,0.4,3.1,1.4,3.9c1.1,0.7,2.3,1.7,3.5,1.9c1.3,0.3,2.2,1,3.6-1.3
	c3.8-6.3,10.7-13.7,13.9-17c3.3-3.3,12.7-11.4,13.5-12c0.8-0.5,2-1.9,0.7,0.8c-1.2,2.3-8.2,12.3-10.4,19.8c-0.9,3.1,0,3.8,0.4,4.4
	c0.4,0.6,3,2.6,3.9,3c0.9,0.4,2.2,0,2.8-0.5c0.6-0.5,1.8-2.8,4.4-6.2c2.6-3.4,15-13.9,15-13.9c-0.4,1-1.8,4.6-2.6,8.5
	c-0.8,3.9,1.1,7.1,2.7,9.4c1.6,2.3,4.5,4.5,8.8,3.6c3.4-0.7,13.5-6.2,13.5-6.2c0.1,0.5,3.8,7.7,9.7,8.1c8.3,0.6,22-12.5,23.7-14
	c12.1-10.6,20.5-21.4,20.9-21.9c0.4-0.5,0.5-1,1.5,0c1.1,1.1,0.7,1.5,0.5,2.1c-0.2,0.6-3.4,5.9-5.3,9.1c-5,8.3-5.2,12.4-5,15
	c0.2,2.6,3.3,5.6,5.1,6.7c1.8,1.1,2.2,1.4,6.3,0.1c4.8-1.5,16-10.1,16-10.1c0,0.3-0.4,1.5-0.1,3.7c0.4,2.5,1.3,3.4,2.5,4.7
	c1.2,1.3,2.7,3.3,6.7,3.1c4-0.2,15.7-9,16.5-9.6c0.7-0.6,0.8-0.1,0.8-0.1c-1.1,4.9,3.6,8.8,5.5,10.2c1.9,1.4,4.8,2,8.5,0.7
	c3.7-1.3,20-12.3,20-12.3c-0.1,1-0.1,0.4,0.1,3.3c0.2,2.7,3.1,6.2,4.8,7.3c1.7,1.1,4.8,0.8,7.6-0.9c2.8-1.7,14.2-11.6,14.2-11.6
	c-0.4,1.3-0.2,4.8,0.1,5.9c0.2,1.1,2.9,3.2,4.9,4c2,0.7,3.8-0.6,4.8-1.2c3.3-2,24.6-21.2,25.2-21.5c0.5-0.3,1.1-0.4-0.3,1.8
	c-3.8,6.3-9,17.7-9.4,19.1c-0.4,1.3-0.7,1.9-0.2,2.6c0.7,1,2,2.4,4.9,3.3c2.9,0.8,4.8-1.3,5.4-2.4c0.6-1.1,5-8.1,7.6-11.7
	c2.6-3.7,12-11.9,13-12.7c0.9-0.8,1.5-0.5,0.1,2.1c-1.5,2.5-4.9,11.7-4.8,15c0.1,3.3,2.1,5.5,4.3,6.6c1.8,0.9,3.4,1.8,6.1,1.1
	c3.9-0.9,15.9-9,17.8-10.3c2.1-1.4,7.7-5.4,8.3-6.3C479.2,59.2,479.3,55.3,478.3,55.8 M241.4,57.6c6.4-11.6,13.2-12.1,14.4-12.4
	c0.3-0.1,1-0.1,1.1,0.2c0.1,0.3-0.2,1.3-1.3,2.3c-3.2,3.2-11.8,9.3-13.4,10.3C240.5,59.1,241,58.3,241.4,57.6 M396.4,50.2
	c-0.2,0.5-4.5,4.2-6.2,6.1c-3.9,4.4-14.6,12.9-15.7,13.7c-1.1,0.9-2.6,2.3-1.1-1.4c5.7-13.5,14.3-19.3,16.8-20.5
	c2.5-1.3,4.8-2.5,5.8-2.2C396.9,46.1,396.8,48.7,396.4,50.2"/>
<path class="st0" d="M323,35.3c1.5,0.8,2.6,0.9,3,0.9c1,0,2.2-0.1,2.8-1.1c0.6-1,2.4-3.6,2.4-5.1s-0.6-2.2-0.5-2.8
	c0.1-0.5-0.9-2.1-1.6-2.3c-0.8-0.2-1.2,0.9-3,1.4c-0.8,0.2-4.4,3.3-5.1,4.1c-0.7,0.8-1.5,1.1-1.1,1.7
	C320.2,32.7,321.5,34.6,323,35.3"/>
<path class="st0" d="M27.9,82.3c2.8,1.4,14.2,6.1,38.1-3.9c24.8-10.4,50.2-28,51.8-28.9c0,0,16.8-1.6,23.7-0.7
	c0,0-12,22.1-12.6,29.9c-0.2,2.6-0.8,5.9,0.3,9.5c1.6,5.4,6.4,11.5,15.7,9.6c4.6-0.9,5.5-3.8,3.5-3.4c0,0-8.8,0.3-9.7-2.7
	c-0.9-3-5.7-7.3,13.8-41.8c0,0,8.4,0,10,1.1c1.6,1.1,4.2,0.5,2.8-2.3c-1.9-3.9-9.6-5.4-9.6-5.4c2.2-4.3,16.2-26.7,17.7-28.9
	c1.5-2.3,1.6-5.5-0.7-7.2c-2.3-1.6-3.2-2.2-5.3-3.5c-1.2-0.8-3.9-3.4-6.4-1.9C158.7,3.2,128.4,30,109.4,42c0,0-1.6,0.8-4.1,1.1
	c-2.4,0.3-44.5,3.1-76.8,23c0,0-8.4,4.5-7.6,7.4C21.9,77.2,25,81,27.9,82.3 M127.8,41.8c0.3-0.1,31.3-25.9,32.3-26.4
	c0.9-0.5,1.1-0.6,0.4,0.6c-0.7,1.2-15.2,25.7-15.2,25.7C141.9,41.5,126.5,42.2,127.8,41.8 M29.9,73.5c5.5-3.7,18.3-10.6,27.2-13.8
	c19.4-7.1,39.2-9.4,39.3-9.2c0.1,0.2-24.8,14.5-46.6,22.3c-6.9,2.5-13.3,2.9-18.9,2.5C29.7,75.3,27.1,75.4,29.9,73.5"/>
<path class="st0" d="M441.1,141.7c-3.5,1.8-24.2,12.3-26.8,13c-0.9,0.2-0.7-0.2,0.7-3.1c13-27.9,25.1-42.7,26.4-45.9
	c1.6-4-0.9-6.8-2.7-7.5c-0.9-0.4-1.7-1-2.6-1.7c-0.9-0.7-1.4,1.2-2.9,3.3c-1.5,2.1-18.6,30.1-18.6,30.1c-0.1-0.6-1.6-3.3-3.1-4.1
	c-2.6-1.6-5.1-3.1-10.8-0.1c-12.3,6.6-20.2,20-20.2,20c-1.4,1.2-15.1,11.2-16.7,12.2c-1.7,0.9-3.1,2.4-2.2-0.3
	c1.1-3.2,9.7-16.6,11.1-18.8c1.4-2.1,1.3-3.7,0.2-5c-1-1.3-5.5-3.3-6.5-4c-1-0.7-2.1-2-0.1-5.1c2-3.1-1.5-5.6-3-6.5
	c-1.5-0.9-5.4-1.5-7,0.7c-2.5,3.6-1.6,5.7-1.2,6.4c0.4,0.8,0.8-0.4-1.2,2.4c-2.1,2.7-21.4,23.9-22.5,24.8c-1.1,0.9-2.1,2.2-1.8,0.8
	c0.5-2.2,6.3-12.6,8.5-15.9c1.8-2.7-0.1-3.8-1.2-5c-1.2-1.2-1.5-1.8-3.6-2.4c-1.9-0.5-2.4,1.8-2.6,1.4c-0.2-0.4-2.6-3.3-4.1-4.2
	c-1-0.6-3-3.2-6.5-1.7c-12.6,5.4-22.9,20.8-22.9,20.8c-1.2,0.9-8.7,6.6-13.3,8.9c-0.9,0.5-1,0-0.8-1.1c0.6-4.2,7.5-17.7,9.4-20.6
	c3.8-6,15.2-23.7,20.4-31.4c1.9-2.7-0.2-5.8-1.5-6.7c-0.5-0.4-1.9-2-3.8-2.7c-1-0.4-1.7-0.2-2,0.8c-0.3,0.9-3.2,5.2-5.7,9.1
	c-2.5,3.9-16.5,26.3-16.5,26.3c-0.6-3.8-4.9-7.7-12.8-4.8c-9.4,3.5-20.3,21-20.3,21c-0.5,0.5-10.9,8.4-14.3,10.1
	c-2.7,1.4-2,0.4-1.7-0.8c0.1-0.6,2.7-6.1,5.7-11.5c3.1-5.7,6.8-11.6,6.9-12.9c0.1-1.8-3.2-3.9-4.8-4.7c-1.6-0.7-2.5-0.5-6,1.1
	c-3.5,1.7-13.1,8.3-13.1,8.3c0.3-0.6,1.7-2.5,1-5.2c-0.7-2.7-6-3.8-7.8-3.9c-2.1-0.1-1.5,0.8-1.3,0.9c0.4,0.5-0.1,2.8-3.7,7.8
	c-6,8.2-13.7,14.3-15.4,15.4c-2.3,1.4-6.3,5-7,4.4c-1.7-1.5,9-14.7,9.6-16.6c0.6-1.8-0.4-4.3-1.9-6.4c-1.5-2.1-2.6-1.8-3.2-1.5
	c-0.6,0.2-1,0.6-1.9-1.5c-1.2-2.9-4-4.4-6.2-5.2c-2.6-1-2.4-1.3-7,1.5c-9.5,5.9-15.2,13.3-16.3,14.3c-1.1,1-4,3.7-6.2,5.2
	c-2.1,1.5-18.6,12.9-20.3,13.9c-1.7,1-4.2,2.8-3.3,0.4c4.5-11.3,28.7-41.2,28.7-41.2c5-1.2,33.8-2.8,48.4-3.6
	c4.6-0.2,9.8,1,10.6,1.4c0.9,0.4,1.8,1.3,2.4,1.3c1.5-0.2,0.7-1.2-0.8-4.4c-1.5-3.2-6.9-4.7-16-5.6c-9.1-0.9-36.3,1.3-36.3,1.3
	c0.3-0.6,6.7-7.8,8.5-12.2c1-2.3-1.7-5.6-4.3-6.8c-3.1-1.3-3.5,0.2-4.8,1.7c-1.3,1.5-3.6,4.7-5.7,7.8c-2.1,3.2-8,10.3-8,10.3
	c-22.6,3.5-25.1,4-28.7,4.1c-1.9,0-3.4,5-1.8,6.5c1.6,1.5,4.1,1.7,6.6,1.5c2.5-0.2,12.8-1.8,14.3-2.1c1.5-0.3,1,0.6,1,0.6
	c-5.1,5.9-19.3,27.5-20.5,30c-1.2,2.5-3.8,7.3-3.1,10.3c0.7,3,2.9,6.7,6.3,7.7c3.4,1,14.8-6.3,16.7-7.5c1.9-1.3,9.7-6.3,9.7-6.3
	c-0.4,1.1-0.2,4.7,0.6,6.2c0.7,1.5,3.6,4.2,6.9,5.3c3.3,1.1,7.1-3.3,8.2-4.5c1.2-1.2,9.6-9.1,10-9.8c0.5-0.7,0.8-0.7,0.6,0.2
	c-0.2,1,0.1,3.6,0.5,4.6c0.4,1,2.4,4,5.4,5.1c2.9,1.1,5.2-1,6.8-2.1c1.9-1.3,4.2-2.7,4.2-2.7c-1.3,2.1-1.8,3-1.7,4.5
	c0.1,1.8,3.6,4.6,5.2,5.1c1.6,0.5,2,0,3.4-2.7c3.6-6.9,11.6-15.5,13.7-17.7c2.2-2.2,12.3-9.8,12.7-10.1c0.4-0.4,1.5-1,0.7,0.4
	c-0.8,1.4-2.2,4.3-4.3,8.4c-2.2,4.2-2.7,8.8-1.8,11.2c0.9,2.4,3.3,5,6.5,6.2c3.2,1.2,5.2,0.5,7.2-0.4c2-0.9,8-5.4,8-5.4
	c-0.2,0.4-0.7,1.4-0.4,3.3c0.2,1.9,1.4,3.4,5.5,5.6c4.1,2.2,7,0.1,9.2-1.2c7.2-4.4,12.5-11.7,12.5-11.7c-0.5,1.9-0.1,3.8,0.1,4.6
	c0.5,1.6,3.3,3.9,5.6,5c2.2,1.1,4.5,1.7,6.4,1.1c1.9-0.7,8.6-5.8,8.6-5.8c0,0.7,0.9,5.6,4.2,8c3.2,2.3,5.6,0.8,7.1,0
	c3-1.6,14.9-11.3,14.9-11.3c-0.1,1.1-0.1,3.6,0.4,4.9c1,2.5,3.5,4.7,6.9,5.5c0.6,0.2,1.7,0,2.8-0.9c3.4-2.8,6.3-5.9,7.4-7
	c1-1,8-8.6,12.7-13.8c4.3-4.7,8-9.1,8-9.1c0.7-1,1.1-0.6,1.9,0.6c0.7,1.2,0.3,1.7-0.9,3.9c-1.2,2.1-3.7,7.1-5.6,11.1
	c-1.9,4-2.8,6.2-3,9.7c-0.2,3.1,2.9,6,4.5,7.4c1.5,1.5,4.3,2.1,7.7,0.4c2-1,4.1-2.1,6.3-3.5c2.4-1.5,4.6-3.3,6.1-4.4
	c1.1-0.8,1.8-1.3,1.8-1.3c-0.2,1.4,1.5,6.4,6.8,8.4c5.3,2,8.2-1.6,9-2.4c0.8-0.9,8.2-8.4,9.8-10.4c0.5-0.7,0.5-0.3,0.5,0.1
	c0,0.4-0.7,1.7-0.4,4c0.3,2.8,3.6,6.4,6.3,7.4c2.6,1,7-0.1,10.2-2.2c3.2-2.2,20.5-12.7,21.8-14.3c1.4-1.6,1.9-1.9,1.3-5.2
	C443.9,140.1,443.8,140.3,441.1,141.7 M181.5,140.8c-3.9,4.4-13.1,12.5-15.1,14c-1.2,0.8-2.6,2.3-1.2-1.4
	c4.5-11.6,14-18.8,16.3-20.4c2.5-1.7,4.2-2.6,5.2-2.3c1,0.3,3.3,0.6,2.8,2.1C189.3,133.4,183.1,139,181.5,140.8 M281.2,132.1
	c0,0-2.9,4.3-4.9,7.5c-2.1,3.3-14.9,14.7-17.7,16.3c-2.5,1.5-4.3,3.1-1.1-3.1c3.4-6.4,13.5-17.5,16.6-19.4c3.1-2,6.6-2.9,7-2.5
	C281.5,131.2,281.5,131.6,281.2,132.1 M321.2,144.1c-3.9,4.4-13.4,11.4-15.5,12.9c-1.2,0.8-2.8,1.9-1.4-1.8
	c3.7-9.8,12.8-16.7,15.1-18.2c2.5-1.7,5.9-3.6,7.3-3.4c0.9,0.1,1.6,0.5,1.7,2C328.6,136.3,322.8,142.2,321.2,144.1 M410.4,135.3
	c0,0-16.3,17.7-20.8,20.3c-2.5,1.5-3.8,3-1.1-4.3c2.6-6.8,10.8-13.7,14-15.7c3.1-2,7-4,8.1-3.5C411,132.5,411.1,134.3,410.4,135.3"
	/>
<path class="st0" d="M124.7,92.2c-16-15.9-70.5-5.9-78.6,9.2c-1,1.9-2.7,8.7,2,13.8c4.3,4.5,12.2,6.5,22.8,9.4
	c5.2,1.4,11.2,2.7,17.3,5.3c18.8,8.1,19.9,13.4,19.8,15.4c-0.2,2.7-12.3,13.4-31.8,22.8c-19.4,9.4-45.1,13.1-52.5,13.3
	c-6.3,0.1-14.4,0.7-15.6-2.8c-1.3-3.9,3.9-13.5,4.6-14.6c0.7-1.1,0.4-1.8,0.4-1.8c-2.4-2.8-9.2,6.5-11.6,10.3
	c-2.4,3.8,4.4,14,12.4,16.7c8.3,2.8,26.4,0.6,39.3-2.1c33.3-7.1,55.9-25.1,58.3-27.4c2.4-2.3,8.3-9.5,1.3-19.1
	c-11.9-16.4-35.4-22.6-47.8-25.5c-7.4-1.7-10.9-3.2-12.6-4c-0.8-0.4-1-1.5-0.4-2.2c8.7-10.1,33.2-17.6,63.6-13.8
	c3.6,0.4,5.4,1.8,5.1,3.1c-0.2,0.5-0.4,1.2-0.7,2c-1.4,4.6-3.5,6.3-2.2,7.4c1.2,1,3.7-1.2,4.5-1.8c0.5-0.4,2.7-2.4,4-4.6
	c0,0,0-0.1,0-0.1l0,0C128.2,98.7,128.1,95.5,124.7,92.2"/>
</svg>
