<?xml version="1.0" encoding="utf-8"?>
<!-- Generator: Adobe Illustrator 23.0.4, SVG Export Plug-In . SVG Version: 6.00 Build 0)  -->
<svg version="1.1" xmlns="http://www.w3.org/2000/svg" xmlns:xlink="http://www.w3.org/1999/xlink" x="0px" y="0px"
	 viewBox="0 0 385.3 102.9" xml:space="preserve">
<path fill="currentColor" d="M266.4,83.6h-10.9l-0.2-35.1c0-5-5.3-5.1-5.3-5.1h-4.8c0,0-0.7,0.1-1.4,0.2c-6.9,1.5-9.1,6.8-9.1,12.9l0.1,27.2h-11.1l0-35
	c0-5.1-5.4-5.3-5.4-5.3h-4.8c0,0-0.7,0.1-1.4,0.2c-6.9,1.5-9.1,6.8-9,12.9l0,27.2h-11.1l0-29.3l0-22H203l0,4.6
	c3.2-3.9,8-4.7,10.3-4.7h4c4.9,0,9.2,1.6,13.7,5.7c4.7-4,8.7-5.7,14-5.7h4c10.1,0,17.2,6.4,17.3,16.9L266.4,83.6z"/>
<path fill="currentColor" d="M352,32.2h-16.8l0-10.3l-11.1-6.7l0,68.4h11.1l-0.1-40.3h17.1c1.1,0,2.3,0.2,3.3,0.8c1.6,0.8,2.8,2.5,2.7,5.4l0,34.2h11.1
	l-0.1-34.6C369.3,38.4,362,32.2,352,32.2z"/>
<path fill="currentColor" d="M308.6,21.4l-10.4-6.3h-0.4l-0.1,28.2h0l0,22.2c0,9.1,4,15.9,12.2,17.8c1.6,0.3,2.7,0.3,2.7,0.3h2.3l-0.1-11.1h-1.6
	c-4.8,0-4.7-5.7-4.7-5.7l0-23.6h6.4L315,32.2h-6.4L308.6,21.4z"/>
<path fill="currentColor" d="M276.5,83.6h11l0-51.4h-11L276.5,83.6z M277,15.1h-0.5l0,11.6h10.8l0-5.3L277,15.1z"/>
<path fill="currentColor" d="M137.1,64.7c4.9,5.2,11.8,8.9,19.5,8.9c9.2-0.1,15.7-3.6,15.7-9.9c0-14.7-42.4-0.5-42.4-27.4c0-11.7,12.3-19.8,27.2-19.8
	c10.9,0,19.7,3.5,26.2,10.1l-9,8.1c-6-5.9-11.4-7.9-17.8-7.9c-10.1,0-13.8,4.9-13.8,8.9c0,14.8,42.4,0,42.4,27.4
	c0,13.7-13.9,22-29,22c-9.2,0-19.9-3.5-28.2-12.2L137.1,64.7z"/>
<g>
	<g>
		<g>
			<path fill="currentColor" d="M379.7,72.3c3.1,0,5.7,2.5,5.7,5.7c0,3.1-2.5,5.7-5.7,5.7c-3.1,0-5.7-2.5-5.7-5.7C374,74.8,376.5,72.3,379.7,72.3z
				 M379.7,82.4c2.2,0,4-1.8,4-4.4c0-2.6-1.8-4.4-4-4.4c-2.3,0-4,1.8-4,4.4C375.6,80.6,377.4,82.4,379.7,82.4z M377.4,74.8h2.4
				c1.6,0,2.5,0.5,2.5,1.9c0,1.1-0.7,1.6-1.7,1.7l1.7,2.7h-1.4l-1.5-2.7h-0.6v2.7h-1.3V74.8z M379.8,77.4c0.6,0,1.1-0.1,1.1-0.8
				c0-0.6-0.7-0.7-1.2-0.7h-1v1.6H379.8z"/>
		</g>
	</g>
</g>
<g>
	<path fill="currentColor" d="M25,59.5h17.7l-8.8-21.7L25,59.5z M91.5,82.2c-18.1,0-32.5-13.8-32.5-31.5c0-17.8,14.4-31.5,32.5-31.5
		c11.7,0,21.8,5.7,27.5,14.6C110,13.8,86.7,0,61.4,0C29.1,0,0,22.5,0,51.4C0,60,2.5,67.9,6.9,74.9l23.9-54.6l6.8,0l25.7,60.6H51.2
		l-4.6-11.4H20.9L15,84.8c11.5,11.1,28.5,18.1,46.4,18.1c27.3,0,52.4-16.2,59.5-38.7C115.7,74.9,104.6,82.2,91.5,82.2z M70.7,50.6
		c0,11.8,9.8,20.9,20.7,20.9c10.9,0,20.7-9.2,20.7-20.9c0-11.8-9.8-20.9-20.7-20.9C80.6,29.7,70.7,38.8,70.7,50.6z"/>
</g>
</svg>
