<?xml version="1.0" encoding="utf-8"?>
<!-- Generator: Adobe Illustrator 23.0.4, SVG Export Plug-In . SVG Version: 6.00 Build 0)  -->
<svg version="1.1" id="Layer_1" xmlns="http://www.w3.org/2000/svg" xmlns:xlink="http://www.w3.org/1999/xlink" x="0px" y="0px"
	 viewBox="0 0 132.1 27.9" style="enable-background:new 0 0 132.1 27.9;" xml:space="preserve">
<style type="text/css">
	.st0{fill-rule:evenodd;clip-rule:evenodd;}
</style>
<g>
	<path class="st0" d="M38.6,1.9l-3.3,0l0,0.2v21.9l2.6,0l3.5,0c8.4,0,13.5-4.2,13.5-11.4c0-7.3-4.2-11-12.4-11L38.6,1.9L38.6,1.9z
		 M42,4.4c6.3,0,9.5,2.9,9.5,8.6c0,5.5-3.5,8.5-9.7,8.5c-0.9,0-2.3,0-3.1-0.1V4.5C39.7,4.4,40.9,4.4,42,4.4L42,4.4z M74.3,1.9H61.4
		v22.3h13v-2.6h-9.6v-7.7H74v-2.5h-9.2v-7h9.6L74.3,1.9L74.3,1.9 M84.2,1.9h-3.2v22.3H93v-2.6h-8.8L84.2,1.9L84.2,1.9 M111.6,1.9H94
		v2.6h7.1v19.7h3.3V4.5h7.2L111.6,1.9L111.6,1.9 M123.1,1.9h-3.3l-9.1,22.3h3.3c0,0,2-5,2.1-5.1h10.5l2,5.1h3.6L123.1,1.9
		C123.1,1.9,123.1,1.9,123.1,1.9z M121.3,5.6c0.4,1.1,0.8,2.2,1.2,3.3l3.1,7.8h-8.5l3.1-7.7C120.6,7.8,121,6.7,121.3,5.6L121.3,5.6z
		"/>
</g>
<path class="st0" d="M14,0C6.2,0,0,6.2,0,13.9c0,7.7,6.2,14,14,14c7.7,0,14-6.2,14-14C27.9,6.2,21.7,0,14,0z M12,3.8
	c0.2-0.3,0.4-0.6,0.6-0.9c1.4-1.4,3.6-1.4,5,0c1.4,1.4,1.3,3.6,0,5c-0.3,0.3-0.6,0.5-0.9,0.6c-0.3,0.2-11.1,6.4-11.1,6.4
	S11.8,4.1,12,3.8z M6.5,22.3c-0.3,0-0.7,0-1.1-0.1c-1.9-0.5-3.1-2.3-2.6-4c0.5-1.7,2.5-2.8,4.4-2.3c0.3,0.1,0.7,0.2,1,0.4
	c0.3,0.2,11.2,6,11.2,6L6.5,22.3z M22.7,23.1c-1.7,0.5-3.5-0.6-4-2.6c-0.1-0.4-0.1-0.7-0.1-1.1c0-0.3,0-13,0-13l6,11.3
	c0.2,0.3,0.3,0.6,0.4,1C25.5,20.7,24.5,22.6,22.7,23.1z"/>
</svg>
