<?xml version="1.0" encoding="utf-8"?>
<!-- Generator: Adobe Illustrator 23.0.4, SVG Export Plug-In . SVG Version: 6.00 Build 0)  -->
<svg version="1.1" id="Layer_1" xmlns="http://www.w3.org/2000/svg" xmlns:xlink="http://www.w3.org/1999/xlink" x="0px" y="0px"
	 viewBox="0 0 2500 2500" xml:space="preserve">

<g>
	<path fill="#384c74" d="M1250,2462.1c-669.6,0-1213.2-543.6-1213.2-1213.3C36.8,579.2,580.4,37.9,1250,37.9
		c669.6,0,1213.2,541.3,1213.2,1210.9C2463.3,1918.5,1919.6,2462.1,1250,2462.1L1250,2462.1z M652.3,1368.1
		c156.3-70,261.3-226.3,261.3-406c0-235.6-184.3-427-415.3-443.3h-88.7v1406.9H496v-518c23.3-2.3,44.3-4.7,67.7-9.3l513.3,604.3
		h114.3L652.3,1368.1z M498.6,609.8c184.3,14,329,165.6,329,352.3c0,189-144.7,340.6-329,357L498.6,609.8L498.6,609.8z
		 M1916.9,1141.5c0-18.7,16.3-35,35-35c21,0,37.3,16.3,37.3,35v543.6h86.3v-543.6c0-18.7,16.3-35,37.3-35c18.7,0,35,16.3,35,35
		v543.6h86.3v-543.6c0-67.7-53.7-123.7-121.3-123.7c-32.7,0-58.3,9.3-79.3,30.3c-21-21-49-30.3-81.7-30.3c-14,0-23.3,2.3-35,7v-7
		h-86.3v667.3h86.3L1916.9,1141.5L1916.9,1141.5L1916.9,1141.5z M1492.4,1391.5v-37.3c0-189-63-343-142.3-343
		c-79.3,0-144.7,154-144.7,343c0,186.6,65.3,340.7,144.7,340.7c60.6,0,114.3-93.3,133-224l-79.3-11.6c-9.3,84-30.3,140-53.7,140
		c-30.3,0-56-88.7-60.7-207.7L1492.4,1391.5L1492.4,1391.5L1492.4,1391.5z M1408.2,1302.8h-116.7c4.7-114.3,28-196,58.3-196
		C1377.8,1106.8,1403.5,1188.4,1408.2,1302.8z M1798,1391.5c2.3-14,2.3-23.3,2.3-37.3c0-189-63-343-142.3-343
		c-79.3,0-144.7,154-144.7,343c0,186.6,65.3,340.7,144.7,340.7c60.6,0,114.3-93.3,133-224l-79.3-11.6c-9.3,84-30.3,140-53.7,140
		c-30.3,0-56-88.7-60.7-207.7L1798,1391.5L1798,1391.5L1798,1391.5z M1716.2,1302.8h-119c7-114.3,30.3-196,60.7-196
		C1685.9,1106.8,1711.6,1188.4,1716.2,1302.8z M1182.3,1143.9c0-70-53.7-126-121.3-126c-14,0-25.7,2.3-37.3,7V117.3h-86.3v1567.9
		h86.3v-541.3c-0.3-20.4,16-37.1,36.4-37.3c0.3,0,0.6,0,0.9,0c18.7,0,35,16.3,35,37.3v541.3h86.3L1182.3,1143.9L1182.3,1143.9
		L1182.3,1143.9z M1816.1,2038.2c45.6,0,84.6-35.9,84.6-85.1c0-48.7-39-84.6-84.6-84.6c-46.1,0-85.1,35.9-85.1,84.6
		C1731,2002.3,1770,2038.2,1816.1,2038.2z M1747.9,1953.2c0-40.2,29.9-70.5,68.2-70.5c37.9,0,67.8,30.3,67.8,70.5
		c0,40.9-29.9,70.9-67.8,70.9C1777.7,2024.1,1747.9,1994,1747.9,1953.2z M1798.3,1959.9h16.8l25.5,42.4h16.4l-27.5-43.1
		c14.2-1.8,25.1-9.5,25.1-27c0-19.3-11.3-27.8-34.1-27.8h-36.8v97.9h14.6L1798.3,1959.9L1798.3,1959.9L1798.3,1959.9z
		 M1798.3,1947.3V1917h19.9c10.2,0,21,2.2,21,14.4c0,15-11.1,15.9-23.5,15.9H1798.3z"/>
</g>
</svg>
