<svg id="Layer_1" xmlns="http://www.w3.org/2000/svg" viewBox="0 0 104.4 15.5"><path fill="#384c74" class="st0" d="M1.5 15.6C.7 15.6 0 14.9 0 14c0-.9.7-1.5 1.5-1.5h13.9c.9 0 1.5-.7 1.5-1.5 0-.9-.7-1.5-1.5-1.5H4.6C2.1 9.4 0 7.3 0 4.7 0 2.1 2.1.1 4.6.1h13.1c.9 0 1.5.7 1.5 1.5 0 .9-.7 1.5-1.5 1.5H4.6c-.9 0-1.5.7-1.5 1.5 0 .9.7 1.5 1.5 1.5h10.8c2.6 0 4.6 2.1 4.6 4.6 0 2.6-2.1 4.6-4.6 4.6H1.5zM24.1 1.7c0-.9-.7-1.5-1.5-1.5-.9 0-1.5.7-1.5 1.5v10.8c0 1.7 1.4 3.1 3.1 3.1h11.6c.9 0 1.5-.7 1.5-1.5 0-.9-.7-1.5-1.5-1.5H24.1V1.7zM56.6 14c0 .9-.7 1.5-1.5 1.5H39.6c-.9 0-1.5-.7-1.5-1.5V1.7c0-.9.7-1.5 1.5-1.5H55c.9 0 1.5.7 1.5 1.5V14zm-15.5-1.5h12.4V3.2H41.1v9.3zm27-8.3l-8 10.7c-.5.7-1.5.8-2.2.4-.7-.5-.9-1.4-.4-2L66.8.9c.3-.4.7-.6 1.3-.6.5 0 1 .2 1.3.6l9.3 12.4c.5.7.3 1.6-.4 2-.7.5-1.7.3-2.2-.4l-8-10.7z"/><path d="M71.2 14c.9 0 1.5-.7 1.5-1.5 0-.9-.7-1.5-1.5-1.5H65c-.9 0-1.5.7-1.5 1.5 0 .9.7 1.5 1.5 1.5h6.2z" fill="#384c74"/><path fill="#384c74" class="st0" d="M79.9 1.6v12.5c0 .8.7 1.5 1.5 1.5.9 0 1.5-.7 1.5-1.5V4.7l13.5 10.4c.3.3.7.5 1.2.5.9 0 1.5-.7 1.5-1.5V1.6c0-.8-.7-1.5-1.5-1.5-.9 0-1.5.7-1.5 1.5V11L82.4.5c-.3-.2-.6-.3-1-.3-.8 0-1.5.6-1.5 1.4m22.5 10.5c.4 0 .8.2 1.1.5.3.3.5.7.5 1.1 0 .4-.2.8-.5 1.2-.3.3-.7.5-1.1.5-.4 0-.8-.2-1.1-.5-.3-.3-.5-.7-.5-1.2 0-.4.2-.8.5-1.1.3-.4.7-.5 1.1-.5m2 1.6c0-.5-.2-1-.6-1.4-.4-.4-.8-.6-1.4-.6-.5 0-1 .2-1.3.5-.4.4-.6.9-.6 1.4 0 .6.2 1 .6 1.4.4.4.8.6 1.4.6.5 0 1-.2 1.4-.6.3-.3.5-.8.5-1.3m-1.6-.4c0 .1 0 .2-.1.3-.1.1-.2.1-.3.1h-.2V13h.4c.1 0 .2.1.2.3m-.7 1.4V14h.4c.1 0 .1.1.2.2v.6h.5v-.5c0-.2-.1-.4-.2-.5-.1-.1-.2-.1-.3-.1.1 0 .3-.1.4-.1.1-.1.2-.2.2-.4s-.1-.4-.3-.5c-.1-.1-.3-.1-.4-.1h-1v2.2h.5z"/></svg>
