<?xml version="1.0" encoding="UTF-8" standalone="no"?>
<!-- Created with Inkscape (http://www.inkscape.org/) -->

<svg
   xmlns:dc="http://purl.org/dc/elements/1.1/"
   xmlns:cc="http://creativecommons.org/ns#"
   xmlns:rdf="http://www.w3.org/1999/02/22-rdf-syntax-ns#"
   xmlns:svg="http://www.w3.org/2000/svg"
   xmlns="http://www.w3.org/2000/svg"
   xmlns:sodipodi="http://sodipodi.sourceforge.net/DTD/sodipodi-0.dtd"
   xmlns:inkscape="http://www.inkscape.org/namespaces/inkscape"
   width="1000"
   height="227.763"
   viewBox="0 0 1000 227.763"
   id="svg5860"
   version="1.1"
   inkscape:version="0.91 r13725"
   sodipodi:docname="Toto.svg">
  <defs
     id="defs5862" />
  <sodipodi:namedview
     id="base"
     pagecolor="#ffffff"
     bordercolor="#666666"
     borderopacity="1.0"
     inkscape:pageopacity="0.0"
     inkscape:pageshadow="2"
     inkscape:zoom="256"
     inkscape:cx="998.90087"
     inkscape:cy="227.83751"
     inkscape:document-units="px"
     inkscape:current-layer="layer1"
     showgrid="false"
     units="px"
     inkscape:window-width="1366"
     inkscape:window-height="705"
     inkscape:window-x="-8"
     inkscape:window-y="-8"
     inkscape:window-maximized="1" />
  <metadata
     id="metadata5865">
    <rdf:RDF>
      <cc:Work
         rdf:about="">
        <dc:format>image/svg+xml</dc:format>
        <dc:type
           rdf:resource="http://purl.org/dc/dcmitype/StillImage" />
        <dc:title></dc:title>
      </cc:Work>
    </rdf:RDF>
  </metadata>
  <g
     inkscape:label="Layer 1"
     inkscape:groupmode="layer"
     id="layer1"
     transform="translate(0,-824.59918)">
    <path
       style="fill:#000000"
       inkscape:connector-curvature="0"
       d="m 184.00611,1044.2255 0,-25.6286 -29.66326,0 c -7.33265,0 -13.4449,-3.4225 -13.4449,-12.0612 l 0,-145.90615 16.17552,0 c 29.05102,0 42.53877,22.32653 42.53877,50.92857 l 0,3.50409 28.7653,0 0,-80.7551 -228.37754,0 0,80.75101 28.68572,0 0,-3.50408 c 0,-28.60204 13.60815,-50.93061 42.69999,-50.93061 l 16.37755,0 0,145.91017 c 0,8.6388 -6.47755,12.0613 -13.73061,12.0613 l -29.78367,0 0,25.6306 z M 448.16332,845.94997 c -21.0246,-16.3796 -58.2246,-21.35103 -80.2654,-21.35103 -21.8428,0 -58.95915,4.97143 -80.10813,21.35103 -21.26939,16.4204 -41.92652,45.38775 -41.92652,92.36733 0,47.06122 20.65713,75.9102 41.92652,92.5755 21.14693,16.2959 58.26533,21.4694 80.10613,21.4694 22.0408,0 59.2408,-5.1735 80.2652,-21.4694 21.3103,-16.6673 42.2532,-45.51428 42.2532,-92.5755 0,-46.97958 -20.9429,-75.94897 -42.2532,-92.36733 m -33.5713,156.98983 c -11.0449,14.4653 -28.5245,22.0408 -46.6939,22.0408 -17.9714,0 -35.53062,-7.5755 -46.61634,-22.0408 -10.91836,-14.42454 -16.05306,-42.57964 -16.05306,-64.6225 0,-21.83673 5.1347,-50.0755 16.05306,-64.45917 11.08163,-14.58571 28.64494,-22.08164 46.61224,-22.08164 18.1735,0 35.6531,7.49593 46.6939,22.08164 10.9592,14.38367 16.0551,42.6204 16.0551,64.45917 0,22.04083 -5.0939,50.19796 -16.0531,64.6225 m 279.2122,41.2857 0,-25.6286 -29.7449,0 c -7.2917,0 -13.3632,-3.4225 -13.3632,-12.0612 l 0,-145.90615 16.1734,0 c 29.0103,0 42.4572,22.32653 42.4572,50.92857 l 0,3.50409 28.8042,0 0,-80.7551 -228.1675,0 0,80.75101 28.845,0 0,-3.50408 c 0,-28.60204 13.4082,-50.93061 42.702,-50.93061 l 16.0123,0 0,145.91017 c 0,8.6388 -6.1531,12.0613 -13.445,12.0613 l -29.7469,0 0,25.6306 z m 264.4776,-198.27553 c -21.1061,-16.3796 -58.306,-21.35103 -80.3469,-21.35103 -22.1266,0 -59.3265,4.97143 -80.598,21.35103 -20.902,16.4204 -41.804,45.38775 -41.804,92.36733 0,47.06122 20.898,75.9102 41.8021,92.5755 21.2692,16.2959 58.4693,21.4694 80.5958,21.4694 22.0408,0 59.2449,-5.1735 80.3469,-21.4694 21.196,-16.6673 41.72658,-45.51428 41.72658,-92.5755 0,-46.97958 -20.53478,-75.94897 -41.72248,-92.36733 m -33.653,156.98983 c -11.0041,14.4653 -28.5653,22.0408 -46.6939,22.0408 -18.2163,0 -35.9387,-7.5755 -46.8572,-22.0408 -10.9632,-14.42454 -15.9755,-42.57964 -15.9755,-64.6225 0,-21.83673 5.0123,-50.0755 15.9735,-64.45917 10.9183,-14.58571 28.6429,-22.08164 46.8572,-22.08164 18.1306,0 35.6938,7.49593 46.6939,22.08164 10.9999,14.38367 16.1347,42.6204 16.1347,64.45917 0,22.04083 -5.1328,50.19796 -16.1327,64.6225"
       id="path5840" />
  </g>
</svg>
