<?xml version="1.0" encoding="utf-8"?>
<!-- Generator: Adobe Illustrator 23.0.4, SVG Export Plug-In . SVG Version: 6.00 Build 0)  -->
<svg version="1.1" id="Layer_1" xmlns="http://www.w3.org/2000/svg" xmlns:xlink="http://www.w3.org/1999/xlink" x="0px" y="0px"
	 viewBox="0 0 78.1 19" style="enable-background:new 0 0 78.1 19;" xml:space="preserve">
<style type="text/css">
	.st0{fill:#0072CE;}
</style>
<g>
	<path d="M1.7,15.1c-0.6,0-1-0.1-1.3-0.3S0,14.3,0,13.8c0-0.2,0-0.5,0.1-0.8L2.6,1.5h2.9l-0.6,3h2.6L7,6.8H4.4l-1.2,5.4
		c0,0.1,0,0.2,0,0.3c0,0.2,0.2,0.3,0.5,0.3h1.9l-0.5,2.3C5.1,15.1,1.7,15.1,1.7,15.1z"/>
	<path d="M8.2,15.1c-0.6,0-1-0.1-1.3-0.3s-0.4-0.5-0.4-1c0-0.2,0-0.5,0.1-0.8L8,6.6C8.2,5.8,8.5,5.3,8.8,5c0.4-0.3,0.9-0.5,1.7-0.5
		h7.2c0.6,0,1,0.1,1.3,0.3c0.3,0.2,0.4,0.5,0.4,1c0,0.2,0,0.5-0.1,0.8L17.9,13c-0.2,0.7-0.4,1.2-0.8,1.6c-0.4,0.3-0.9,0.5-1.7,0.5
		H8.2z M16.1,7.6c0-0.1,0-0.2,0-0.3c0-0.2-0.2-0.3-0.6-0.3h-4.1C11.2,7,11,7,11,7.1c-0.1,0.1-0.2,0.2-0.2,0.5l-0.9,4.3
		c0,0.1,0,0.1,0,0.1v0.1c0,0.2,0.2,0.3,0.5,0.3h4.1c0.3,0,0.4,0,0.5-0.1s0.2-0.2,0.2-0.4L16.1,7.6z"/>
	<path d="M20.4,15.1c-0.6,0-1-0.1-1.3-0.3s-0.4-0.5-0.4-1c0-0.2,0-0.5,0.1-0.8l1.4-6.4C20.4,5.9,20.6,5.4,21,5
		c0.4-0.3,0.9-0.5,1.6-0.5h5L27.1,7h-3.5c-0.2,0-0.4,0-0.5,0.1c0,0.1-0.1,0.3-0.1,0.5l-0.9,4.3c0,0.1,0,0.2,0,0.3
		c0,0.2,0.2,0.3,0.5,0.3H27L29.7,0h3l-3.2,15h-9.1V15.1z"/>
	<path d="M32.5,15.1c-0.6,0-1-0.1-1.3-0.3s-0.4-0.5-0.4-1c0-0.2,0-0.5,0.1-0.8l1.4-6.4c0.2-0.7,0.4-1.2,0.8-1.6
		c0.4-0.3,0.9-0.5,1.6-0.5h5L39.2,7h-3.5c-0.2,0-0.4,0-0.5,0.1S35,7.3,35,7.6l-0.9,4.3c0,0.1,0,0.2,0,0.3c0,0.2,0.2,0.3,0.5,0.3h4.5
		L41.8,0h3l-3.2,15h-9.1V15.1z"/>
	<path class="st0" d="M45.9,15.1l0.5-2.2h3.1c0.2,0,0.3,0,0.4-0.1c0.1-0.1,0.1-0.2,0.2-0.4l0.8-3.7c0-0.1,0-0.1,0-0.2
		c0-0.1,0-0.2-0.1-0.2s-0.2-0.1-0.3-0.1h-4L44.2,19h-2.5l2.8-13h7.8c0.5,0,0.9,0.1,1.1,0.3c0.2,0.2,0.3,0.5,0.3,0.8
		c0,0.2,0,0.5-0.1,0.7l-1.2,5.6c-0.1,0.6-0.4,1.1-0.7,1.4c-0.4,0.3-0.8,0.4-1.4,0.4L45.9,15.1L45.9,15.1z"/>
	<path class="st0" d="M52.9,15.1l1.9-9.2h2.5l-1.9,9.2H52.9z M55.1,4.8L55.7,2h2.6l-0.6,2.8H55.1z"/>
	<path class="st0" d="M59.9,15.1l0.5-2.2h3.1c0.2,0,0.3,0,0.4-0.1c0.1-0.1,0.1-0.2,0.2-0.4l0.8-3.7c0-0.1,0-0.1,0-0.2
		c0-0.1,0-0.2-0.1-0.2s-0.2-0.1-0.3-0.1h-4L58.2,19h-2.5l2.8-13h7.8c0.5,0,0.9,0.1,1.1,0.3c0.2,0.2,0.3,0.5,0.3,0.8
		c0,0.2,0,0.5-0.1,0.7l-1.2,5.6c-0.1,0.6-0.4,1.1-0.7,1.4c-0.4,0.3-0.8,0.4-1.4,0.4L59.9,15.1L59.9,15.1z"/>
	<path class="st0" d="M68.7,15.1c-0.5,0-0.9-0.1-1.1-0.3s-0.3-0.5-0.3-0.8c0-0.2,0-0.4,0.1-0.7l1.2-5.6c0.1-0.6,0.4-1.1,0.7-1.4
		C69.5,6,70,5.9,70.6,5.9h6.2c0.5,0,0.8,0.1,1,0.3C78,6.4,78.1,6.6,78.1,7c0,0.2,0,0.4-0.1,0.7l-0.8,3.6h-6.1l0.3-1.5h3.7l0.3-1.2
		c0-0.1,0-0.1,0-0.2c0-0.1,0-0.2-0.1-0.2C75.4,8,75.3,8,75.1,8h-3.7c-0.2,0-0.3,0-0.4,0.1s-0.1,0.2-0.2,0.4l-0.9,4
		c0,0.1,0,0.1,0,0.2v0.1c0,0.1,0,0.2,0.1,0.2s0.2,0.1,0.3,0.1h6.2l-0.4,2.1h-7.4V15.1z"/>
</g>
</svg>
