<?xml version="1.0" encoding="utf-8"?>
<!-- Generator: Adobe Illustrator 23.0.4, SVG Export Plug-In . SVG Version: 6.00 Build 0)  -->
<svg version="1.1" id="Layer_1" xmlns="http://www.w3.org/2000/svg" xmlns:xlink="http://www.w3.org/1999/xlink" x="0px" y="0px"
	 viewBox="0 0 382.6 361.2" style="enable-background:new 0 0 382.6 361.2;" xml:space="preserve">
<style type="text/css">
	.st0{fill:#FFFFFF;}
	.st1{fill:#0076BE;}
</style>
<path class="st0" d="M43.7,264.7c-10.9,0-18.8-1.9-23.7-5.7c-4.8-3.8-7.2-9.7-7.2-17.8c0-3.6,0.6-8.7,2-15.2L60.1,11.7h54.7
	l-11.7,55.1h47.7l-9,43H94.1L72.6,211.2c-0.5,2.6-0.8,4.3-0.8,5.1c0,3.7,2.9,5.5,8.6,5.5h36l-9,43H43.7z"/>
<path class="st0" d="M200.9,264.7l9.8-46.9h65.7c3.9,0,6.7-0.7,8.4-2.2c1.7-1.4,3.1-4.4,4.1-8.8l17.2-80.2c0.3-1.3,0.4-3,0.4-5.1
	c0-2.3-0.6-4-1.8-4.9c-1.2-0.9-3.3-1.4-6.5-1.4h-85.2l-49.7,232.3h-54.7l59.8-280.7h167.3c11.5,0,19.6,2,24.2,5.9
	c4.7,3.9,7,9.9,7,18c0,5-0.5,9.9-1.6,14.9L340.1,226c-2.9,13.6-8.2,23.4-15.8,29.5c-7.7,6.1-17.8,9.2-30.3,9.2H200.9z"/>
</svg>
